<svg xmlns="http://www.w3.org/2000/svg" style="display: none;">
  
    <symbol id="icon-eye" viewBox="0 0 512 512">
      <path d="m475 274c-29-45-65-78-108-101 11 20 17 42 17 65 0 35-13 65-38 90-25 25-55 38-90 38-35 0-65-13-90-38-25-25-38-55-38-90 0-23 6-45 17-65-43 23-79 56-108 101 25 39 57 70 95 94 38 23 79 34 124 34 45 0 86-11 124-34 38-24 70-55 95-94z m-205-109c0-4-2-7-4-10-3-3-6-4-10-4-24 0-44 8-61 25-17 17-26 38-26 62 0 4 1 7 4 9 3 3 6 4 10 4 4 0 7-1 10-4 2-2 4-5 4-9 0-17 5-31 17-42 12-12 26-18 42-18 4 0 7-1 10-4 2-2 4-6 4-9z m242 109c0 7-2 13-6 20-26 44-62 79-107 105-45 27-93 40-143 40-50 0-98-13-143-40-45-26-81-61-107-105-4-7-6-13-6-20 0-6 2-13 6-19 26-44 62-79 107-106 45-26 93-39 143-39 50 0 98 13 143 39 45 27 81 62 107 106 4 6 6 13 6 19z"/>
    </symbol>
  
    <symbol id="icon-broadcast" viewBox="0 0 512 512">
      <path d="m256 96c71 0 128 58 128 128 0 35-14 66-36 89l-8 47c46-28 76-78 76-136 0-88-71-160-160-160-88 0-160 72-160 160 0 58 31 108 76 136l-8-47c-22-23-36-54-36-89 0-71 57-128 128-128z m-32 160c-18 0-32 15-32 32l0 64c0 18 15 32 32 32l0 128 64 0 0-128c17 0 32-14 32-32l0-64c0-17-14-32-32-32-18 0-32 0-32 0 0 0-14 0-32 0z m96-64c0-35-28-64-64-64-35 0-64 29-64 64 0 36 29 64 64 64 36 0 64-28 64-64z m-64-192c-123 0-224 101-224 224 0 99 64 182 153 212l-6-36c-68-30-115-97-115-176 0-106 86-192 192-192 106 0 192 86 192 192 0 79-47 146-114 176l-6 36c88-30 152-113 152-212 0-123-100-224-224-224z"/>
    </symbol>
  
    <symbol id="icon-food" viewBox="0 0 512 512">
      <path d="m472 336l-43 0c-1-4-2-8-3-11l77-39c8-4 11-13 7-21c-4-8-13-11-21-7l-73 36c-28-60-89-102-160-102c-86 0-158 62-173 144l-43 0c-22 0-40 18-40 40c0 8 3 15 8 21l56 63l0 12c0 22 18 40 40 40l304 0c22 0 40-18 40-40l0-12l56-63c5-6 8-13 8-21c0-22-18-40-40-40z m-59 0l-9 0l8-4c0 1 0 3 1 4z m-157-128c64 0 120 38 145 93l-14 8c-23-50-73-85-131-85c-69 0-126 48-140 112l-17 0c15-73 80-128 157-128z m73 128c-12-28-40-48-73-48c-33 0-61 20-73 48l-17 0c13-37 48-64 90-64c39 0 73 24 88 58l-12 6z m-73-16c-14 0-27 6-36 16l-19 0c11-19 31-32 55-32c24 0 44 13 55 32l-20 0c-8-10-21-16-35-16z m0-64c-51 0-93 34-107 80l-17 0c14-55 64-96 124-96c52 0 97 31 117 76l-15 7c-17-39-56-67-102-67z m160 192l0 24c0 4-4 8-8 8l-304 0c-4 0-8-4-8-8l0-24l-64-72c0-4 4-8 8-8l432 0c4 0 8 4 8 8z m-288-261c0 0 0 1 0 1c0 0 0 0 0 0c1 2 4 4 7 4c4 0 8-4 8-8c0-1 0-1 0-2c0 0 0 0 0 0c-6-14-1-30 6-47c8-18 16-38 7-58c-1-3-4-5-7-5c-5 0-8 4-8 8c0 1 0 2 0 3c0 0 0 0 0 0c0 0 1 0 1 0c0 0 0 0 0 0c6 15 0 29-7 46c-8 18-16 38-8 58c0 0 1 0 1 0z m194-2c1 0 1 0 1 0l0 0c1 3 4 5 7 5c4 0 8-4 8-8c0-1 0-2-1-2c1 0 1-1 0-1c-6-14 0-29 7-46c8-18 16-38 7-58c-1-3-4-5-7-5c-5 0-8 3-8 8c0 0 0 1 0 2c0 0 0 0 0 0c0 0 0 0 0 0c0 1 0 1 0 1c7 14 1 29-6 46c-8 18-16 37-8 57c0 1 0 1 0 1z m-82-70c0 0 0 1 0 1c0 0 0 0 0 0c2 2 4 4 8 4c4 0 8-4 8-8c0-1-1-1-1-2c0 0 0 0 0 0c-6-14 0-30 7-47c8-18 16-38 7-58c-1-3-4-5-8-5c-4 0-7 4-7 8c0 1 0 2 0 3c0 0 0 0 0 0c0 0 0 0 0 0c0 0 0 0 0 0c7 15 0 29-7 46c-7 18-15 38-7 58c0 0 0 0 0 0z"/>
    </symbol>
  
    <symbol id="icon-twitter-alt" viewBox="0 0 512 512">
      <path d="m434 238c26-2 44-13 50-29c-9 5-38 12-54 6c-1-4-2-8-2-11c-13-45-54-81-98-76c3-2 7-3 11-4c4-2 33-7 28-17c-4-8-38 7-45 9c9-3 23-9 25-19c-13 2-26 8-36 17c3-4 6-8 7-13c-35 22-56 67-73 111c-13-13-24-23-34-28c-29-16-64-32-119-52c-1 18 9 42 40 58c-7-1-19 1-29 3c4 21 17 38 52 46c-16 1-24 5-32 13c8 14 25 31 57 27c-35 16-14 44 15 40c-50 50-127 47-171 4c116 158 368 94 405-59c29 1 45-9 55-20c-16 2-39 0-52-6z"/>
    </symbol>
  
    <symbol id="icon-linkedin-alt" viewBox="0 0 512 512">
      <path d="m450 29l-393 0c-19 0-34 14-34 33l0 394c0 19 15 34 34 34l393 0c19 0 34-15 34-34l0-394c0-19-15-33-34-33z m-287 385l-70 0l0-208l70 0z m-35-236l0 0c-24 0-39-16-39-36c0-20 16-36 39-36c24 0 39 16 39 36c0 20-15 36-39 36z m286 236l-70 0l0-111c0-28-10-47-35-47c-19 0-31 13-36 25c-2 5-2 11-2 17l0 116l-70 0c0 0 1-188 0-208l70 0l0 30c9-14 26-35 63-35c45 0 80 30 80 94z m-143-177c0-1 0-1 0-1l0 1z"/>
    </symbol>
  
    <symbol id="icon-fire" viewBox="0 0 512 512">
      <path d="m457 485l0 18c0 2-1 4-3 6-1 2-4 3-6 3l-384 0c-2 0-5-1-6-3-2-2-3-4-3-6l0-18c0-3 1-5 3-7 1-2 4-3 6-3l384 0c2 0 5 1 6 3 2 2 3 4 3 7z m-73-302c0 15-2 28-7 41-5 13-11 23-18 32-8 9-16 17-25 25-9 8-19 16-28 22-9 7-17 14-25 21-7 7-13 15-18 23-5 9-7 18-7 28 0 18 6 39 19 64l-1 0 0 0c-17-8-32-16-45-24-14-8-27-17-40-28-13-11-24-23-32-35-9-13-16-27-21-43-5-17-8-34-8-53 0-15 2-29 7-41 5-13 11-23 18-32 8-9 16-18 25-25 9-8 19-16 28-23 9-6 17-13 25-20 7-7 13-15 18-23 5-9 7-18 7-28 0-18-6-39-19-64l1 0 0 0c17 8 32 16 45 24 14 8 27 17 40 28 13 11 24 23 32 35 9 13 16 27 21 43 5 17 8 34 8 53z"/>
    </symbol>
  
    <symbol id="icon-coffee" viewBox="0 0 512 512">
      <path d="m457 183c0-15-5-28-16-39-11-11-23-16-39-16l-18 0 0 110 18 0c16 0 28-6 39-16 11-11 16-24 16-39z m-475 219l512 0c0 20-7 38-22 52-14 14-31 21-51 21l-366 0c-20 0-38-7-52-21-14-14-21-32-21-52z m530-219c0 30-11 56-32 77-22 22-47 33-78 33l-18 0 0 9c0 17-6 32-19 45-12 12-27 19-45 19l-201 0c-18 0-33-7-45-19-13-13-19-28-19-45l0-211c0-5 2-9 5-12 4-4 8-6 13-6l329 0c31 0 56 11 78 32 21 22 32 48 32 78z"/>
    </symbol>
  
    <symbol id="icon-cutlery" viewBox="0 0 512 512">
      <path d="m238 18l0 183c0 12-4 22-10 32-7 9-16 16-27 20l0 222c0 10-3 19-11 26-7 7-16 11-25 11l-37 0c-10 0-18-4-26-11-7-7-11-16-11-26l0-222c-10-4-19-11-26-20-7-10-10-20-10-32l0-183c0-5 2-9 5-13 4-3 8-5 13-5 5 0 9 2 13 5 4 4 5 8 5 13l0 119c0 5 2 9 6 13 3 4 8 5 13 5 5 0 9-1 13-5 3-4 5-8 5-13l0-119c0-5 2-9 5-13 4-3 8-5 13-5 5 0 10 2 13 5 4 4 6 8 6 13l0 119c0 5 1 9 5 13 4 4 8 5 13 5 5 0 9-1 13-5 3-4 5-8 5-13l0-119c0-5 2-9 6-13 3-3 7-5 12-5 5 0 10 2 13 5 4 4 6 8 6 13z m219 0l0 457c0 10-3 19-11 26-7 7-16 11-25 11l-37 0c-10 0-18-4-26-11-7-7-11-16-11-26l0-146-64 0c-2 0-4-1-6-3-2-1-3-4-3-6l0-229c0-25 9-46 27-64 18-18 40-27 65-27l73 0c5 0 9 2 13 5 3 4 5 8 5 13z"/>
    </symbol>
  
    <symbol id="icon-bell" viewBox="0 0 512 512">
      <path d="m261 485c0-3-2-5-5-5-11 0-21-4-29-12-8-8-12-18-12-29 0-3-2-5-5-5-3 0-4 2-4 5 0 14 5 26 14 35 10 10 22 15 36 15 3 0 5-1 5-4z m233-83c0 10-4 19-11 26-7 7-16 11-26 11l-128 0c0 20-7 37-21 52-15 14-32 21-52 21-20 0-37-7-52-21-14-15-21-32-21-52l-128 0c-10 0-19-4-26-11-7-7-11-16-11-26 10-8 18-16 26-25 8-9 16-20 25-34 8-14 15-29 21-45 6-16 10-36 14-59 4-23 6-48 6-74 0-29 11-56 33-81 22-25 52-40 88-45-2-4-2-8-2-12 0-7 2-14 8-19 5-5 11-8 19-8 8 0 14 3 19 8 6 5 8 12 8 19 0 4 0 8-2 12 36 5 66 20 88 45 22 25 33 52 33 81 0 26 2 51 6 74 4 23 8 43 14 59 6 16 13 31 21 45 9 14 17 25 25 34 8 9 16 17 26 25z"/>
    </symbol>
  
    <symbol id="icon-heartbeat" viewBox="0 0 512 512">
      <path d="m366 293l87 0c-1 1-2 2-3 3-1 0-2 1-3 2l0 1-178 171c-4 4-8 5-13 5-5 0-9-1-13-5l-178-172c-1 0-3-2-6-5l106 0c4 0 8-2 11-4 3-3 5-6 6-10l20-80 55 190c1 4 3 7 6 10 3 2 7 3 11 3 4 0 8-1 11-3 3-3 6-6 7-10l41-138 16 32c4 6 9 10 17 10z m146-123c0 28-10 56-29 86l-106 0-32-63c-1-3-4-6-7-8-3-2-7-3-10-2-9 1-14 5-16 13l-37 123-56-196c-1-4-4-7-7-10-3-2-7-3-11-3-4 0-8 1-11 4-4 2-6 5-7 9l-33 133-121 0c-19-30-29-58-29-86 0-42 12-74 36-98 24-24 58-35 101-35 11 0 23 2 36 6 12 4 23 9 34 16 11 7 20 14 27 20 8 6 15 12 22 19 7-7 14-13 22-19 7-6 16-13 27-20 11-7 22-12 34-16 13-4 25-6 36-6 43 0 77 11 101 35 24 24 36 56 36 98z"/>
    </symbol>
  
    <symbol id="icon-file-text" viewBox="0 0 512 512">
      <path d="m456 136c3 3 5 6 8 10l-135 0 0-135c4 3 8 6 10 8z m-136 47l155 0 0 302c0 7-2 14-8 19-5 5-11 8-19 8l-384 0c-8 0-14-3-19-8-6-5-8-12-8-19l0-458c0-7 2-14 8-19 5-5 11-8 19-8l229 0 0 155c0 8 2 15 8 20 5 5 11 8 19 8z m46 210l0-18c0-3-1-5-3-7-2-1-4-2-6-2l-202 0c-2 0-4 1-6 2-2 2-3 4-3 7l0 18c0 3 1 5 3 7 2 1 4 2 6 2l202 0c2 0 4-1 6-2 2-2 3-4 3-7z m0-73l0-18c0-3-1-5-3-7-2-2-4-2-6-2l-202 0c-2 0-4 0-6 2-2 2-3 4-3 7l0 18c0 3 1 5 3 7 2 1 4 2 6 2l202 0c2 0 4-1 6-2 2-2 3-4 3-7z m0-73l0-18c0-3-1-5-3-7-2-2-4-3-6-3l-202 0c-2 0-4 1-6 3-2 2-3 4-3 7l0 18c0 3 1 5 3 6 2 2 4 3 6 3l202 0c2 0 4-1 6-3 2-1 3-3 3-6z"/>
    </symbol>
  
    <symbol id="icon-cloud" viewBox="0 0 512 512">
      <path d="m530 329c0 30-10 56-32 78-21 21-47 32-77 32l-311 0c-36 0-66-13-91-38-25-25-37-55-37-90 0-25 6-48 20-69 14-21 31-37 53-47 0-5 0-9 0-12 0-41 14-75 43-104 28-28 63-42 103-42 30 0 58 8 82 25 24 16 42 38 54 65 13-11 29-17 47-17 20 0 37 7 52 21 14 14 21 32 21 52 0 14-4 27-12 39 25 6 45 19 61 39 16 20 24 42 24 68z"/>
    </symbol>
  
    <symbol id="icon-facebook-square" viewBox="0 0 512 512">
      <path d="m393 37c23 0 42 8 58 24 16 16 24 35 24 58l0 274c0 23-8 42-24 58-16 16-35 24-58 24l-54 0 0-170 57 0 9-66-66 0 0-42c0-11 3-19 7-24 5-5 13-8 26-8l35 0 0-60c-12-1-29-2-51-2-26 0-46 7-62 23-15 15-23 36-23 64l0 49-57 0 0 66 57 0 0 170-152 0c-23 0-42-8-58-24-16-16-24-35-24-58l0-274c0-23 8-42 24-58 16-16 35-24 58-24z"/>
    </symbol>
  
    <symbol id="icon-facebook-places" viewBox="0 0 512 512">
      <path d="m407 140c-1-6-5-12-7-18c-30-71-94-96-146-96c-70 0-146 46-157 143l0 19c0 1 1 8 1 12c6 46 42 95 69 141c29 49 59 97 89 145c19-31 37-63 55-94c5-9 11-18 15-26c4-6 10-12 13-17c29-53 76-107 76-160l0-22c0-5-7-25-8-27z m-152 99c-20 0-43-10-54-38c-1-5-1-14-1-15l0-13c0-36 30-52 57-52c33 0 58 26 58 59c0 33-27 59-60 59z"/>
    </symbol>
  
    <symbol id="icon-bubble" viewBox="0 0 512 512">
      <path d="m256 112c-95 0-176 51-176 112c0 4 4 8 8 8c4 0 8-4 8-8c0-51 75-96 160-96c4 0 8-4 8-8c0-4-4-8-8-8z m0-80c-141 0-256 86-256 192c0 66 44 124 112 159c0 0 0 1 0 1c0 29-21 60-31 76c0 0 0 0 0 0c-1 2-1 3-1 6c0 8 6 14 14 14c2 0 5 0 5 0c50-8 97-54 108-68c16 3 32 4 49 4c141 0 256-86 256-192c0-106-115-192-256-192z m0 352c-15 0-30-1-45-3c-1-1-3-1-4-1c-10 0-19 5-25 12c-7 8-26 27-49 41c6-15 11-31 11-47c0-1 0-2 0-3c0-12-7-23-17-29c-60-30-95-79-95-130c0-88 100-160 224-160c123 0 224 72 224 160c0 88-100 160-224 160z"/>
    </symbol>
  
</svg>
